<svg version="1.2" baseProfile="tiny-ps" xmlns="http://www.w3.org/2000/svg" viewBox="0 0 170 52" width="170" height="52">
	<title>Bizum Logo-svg</title>
	<style>
		tspan { white-space:pre }
		.shp0 { fill: #1ebdc5 } 
	</style>
	<path id="Layer" fill-rule="evenodd" class="shp0" d="M84.06 18.78C84.4 18.78 84.73 18.84 85.05 18.97C85.36 19.09 85.65 19.28 85.89 19.52C86.13 19.75 86.33 20.04 86.46 20.35C86.59 20.66 86.66 20.99 86.67 21.33L86.67 40.61C86.67 41.3 86.4 41.97 85.91 42.46C85.42 42.95 84.75 43.22 84.06 43.22C83.37 43.22 82.7 42.95 82.21 42.46C81.72 41.97 81.45 41.3 81.45 40.61L81.45 21.33C81.46 20.99 81.53 20.66 81.66 20.35C81.79 20.04 81.99 19.75 82.23 19.52C82.47 19.28 82.76 19.09 83.07 18.97C83.39 18.84 83.72 18.78 84.06 18.78ZM85.9 10.17C86.38 10.72 86.64 11.42 86.64 12.14C86.64 12.86 86.38 13.56 85.9 14.11C85.43 14.65 84.78 15.01 84.06 15.11C83.67 15.1 83.29 15.02 82.93 14.86C82.57 14.71 82.25 14.49 81.98 14.21C81.71 13.93 81.49 13.6 81.34 13.24C81.2 12.88 81.12 12.5 81.12 12.11C81.13 11.73 81.21 11.35 81.36 10.99C81.51 10.64 81.73 10.32 82 10.05C82.27 9.78 82.59 9.56 82.94 9.41C83.3 9.26 83.68 9.18 84.06 9.17C84.78 9.27 85.43 9.63 85.9 10.17ZM109.45 21.9C109.42 22.08 109.38 22.27 109.31 22.45C109.25 22.63 109.17 22.8 109.08 22.97C108.99 23.13 108.89 23.29 108.77 23.44L98 38.44L107.23 38.44C107.83 38.44 108.41 38.68 108.84 39.11C109.27 39.54 109.51 40.12 109.51 40.72C109.51 41.32 109.27 41.9 108.84 42.33C108.41 42.76 107.83 43 107.23 43L93.51 43C93.19 42.99 92.87 42.93 92.58 42.8C92.28 42.67 92.01 42.48 91.79 42.25C91.57 42.02 91.4 41.74 91.28 41.44C91.17 41.14 91.11 40.82 91.12 40.5C91.12 40.36 91.13 40.22 91.15 40.09C91.17 39.95 91.21 39.81 91.25 39.68C91.29 39.55 91.34 39.42 91.41 39.3C91.47 39.17 91.54 39.05 91.62 38.94L102.62 23.61L94.12 23.61C93.52 23.61 92.95 23.37 92.53 22.95C92.11 22.53 91.87 21.96 91.87 21.36C91.87 20.76 92.11 20.19 92.53 19.77C92.95 19.35 93.52 19.11 94.12 19.11L107.06 19.11C107.37 19.08 107.68 19.11 107.98 19.2C108.28 19.3 108.55 19.46 108.78 19.67C109.01 19.88 109.2 20.14 109.32 20.42C109.44 20.71 109.5 21.02 109.5 21.33C109.5 21.52 109.48 21.71 109.45 21.9ZM76.67 27.94L76.67 33.44C76.67 38.78 73.78 43.22 66.95 43.22C60.12 43.22 57.23 38.83 57.23 33.44L57.23 11.78C57.19 11.07 57.44 10.37 57.93 9.85C58.42 9.32 59.1 9.03 59.81 9.03C60.53 9.03 61.21 9.32 61.7 9.85C62.19 10.37 62.44 11.07 62.4 11.78L62.4 19.06L67.18 19.06C73.79 19.06 76.62 22.56 76.62 27.94L76.67 27.94ZM71.4 28.06C71.4 25.72 70.9 23.61 67.06 23.61L62.34 23.61L62.34 33.44C62.34 36.61 63.67 38.56 66.84 38.56C70.01 38.56 71.4 36.61 71.4 33.44L71.4 28.06ZM130.88 18.99C131.19 19.13 131.48 19.32 131.72 19.56C131.96 19.8 132.15 20.09 132.29 20.4C132.42 20.71 132.49 21.05 132.5 21.39L132.5 33.44C132.5 38.78 129.61 43.22 122.78 43.22C115.95 43.22 113.06 38.83 113.06 33.44L113.06 21.39C113.02 20.68 113.27 19.98 113.76 19.46C114.25 18.93 114.93 18.64 115.64 18.64C116.36 18.64 117.04 18.93 117.53 19.46C118.02 19.98 118.27 20.68 118.23 21.39L118.23 33.44C118.23 36.61 119.55 38.56 122.72 38.56C125.89 38.56 127.28 36.61 127.28 33.44L127.28 21.39C127.28 21.05 127.35 20.71 127.48 20.39C127.61 20.07 127.8 19.79 128.04 19.54C128.29 19.3 128.57 19.11 128.89 18.98C129.21 18.85 129.55 18.78 129.89 18.78C130.23 18.79 130.57 18.86 130.88 18.99ZM169.44 40.67C169.44 41.35 169.17 42.01 168.68 42.49C168.2 42.98 167.54 43.25 166.86 43.25C166.18 43.25 165.52 42.98 165.04 42.49C164.55 42.01 164.28 41.35 164.28 40.67L164.28 28.61C164.28 25.44 163.29 23.5 160.17 23.5C157.05 23.5 156.05 25.44 156.05 28.61L156.05 40.67C156.05 41.35 155.78 42.01 155.29 42.49C154.81 42.98 154.15 43.25 153.47 43.25C152.79 43.25 152.13 42.98 151.65 42.49C151.16 42.01 150.89 41.35 150.89 40.67L150.89 28.61C150.89 25.44 149.89 23.5 146.78 23.5C143.67 23.5 142.67 25.44 142.67 28.61L142.67 40.67C142.71 41.38 142.46 42.08 141.97 42.6C141.48 43.13 140.8 43.42 140.08 43.42C139.37 43.42 138.69 43.13 138.2 42.6C137.71 42.08 137.46 41.38 137.5 40.67L137.5 28.61C137.5 23.28 140 18.83 146.78 18.83C147.39 18.8 148 18.83 148.61 18.92C149.21 19 149.8 19.15 150.38 19.36C150.95 19.56 151.51 19.82 152.03 20.13C152.56 20.45 153.05 20.81 153.5 21.22C153.95 20.8 154.44 20.44 154.96 20.12C155.48 19.8 156.04 19.54 156.61 19.34C157.19 19.13 157.79 18.98 158.39 18.9C159 18.81 159.61 18.79 160.22 18.83C167 18.83 169.5 23.22 169.5 28.61L169.44 40.67ZM8.66 17.66C8.38 17.2 8.19 16.69 8.1 16.16C8.01 15.63 8.03 15.09 8.15 14.57C8.26 14.05 8.48 13.55 8.79 13.11L13.63 6.5C14.27 5.63 15.23 5.04 16.31 4.87C17.38 4.71 18.47 4.97 19.35 5.61C20.22 6.25 20.81 7.21 20.98 8.29C21.14 9.36 20.88 10.45 20.24 11.33L15.46 17.94C15.14 18.38 14.75 18.75 14.29 19.03C13.83 19.31 13.32 19.5 12.79 19.58C12.25 19.66 11.71 19.64 11.19 19.51C10.67 19.38 10.17 19.15 9.74 18.83C9.31 18.51 8.94 18.11 8.66 17.66ZM31.62 9.5C32.06 9.81 32.44 10.2 32.73 10.66C33.02 11.12 33.21 11.63 33.29 12.17C33.37 12.7 33.35 13.25 33.21 13.77C33.08 14.3 32.84 14.79 32.51 15.22L13.29 41.67C12.67 42.6 11.7 43.23 10.59 43.43C9.49 43.62 8.36 43.36 7.46 42.7C6.56 42.04 5.96 41.04 5.82 39.93C5.67 38.82 5.98 37.7 6.68 36.83L25.9 10.39C26.22 9.95 26.62 9.59 27.07 9.31C27.53 9.02 28.04 8.84 28.57 8.75C29.11 8.67 29.65 8.7 30.17 8.82C30.69 8.95 31.19 9.18 31.62 9.5ZM7.9 7.39C7.58 7.83 7.18 8.19 6.73 8.47C6.27 8.76 5.76 8.94 5.23 9.03C4.69 9.11 4.15 9.08 3.63 8.96C3.11 8.83 2.61 8.6 2.18 8.28C0.84 7.3 0.22 5.61 0.61 4C1 2.39 2.32 1.17 3.96 0.91C5.6 0.66 7.23 1.42 8.1 2.84C8.96 4.25 8.88 6.05 7.9 7.39ZM37.07 43.72C37.51 44.04 37.87 44.44 38.16 44.9C38.44 45.36 38.62 45.87 38.71 46.4C38.79 46.93 38.77 47.48 38.64 48C38.51 48.52 38.28 49.02 37.96 49.45C36.98 50.78 35.3 51.39 33.69 51C32.09 50.61 30.88 49.29 30.62 47.66C30.37 46.02 31.12 44.4 32.53 43.54C33.94 42.68 35.73 42.75 37.07 43.72ZM29.57 33.22C30 33.54 30.37 33.94 30.65 34.4C30.93 34.86 31.11 35.37 31.2 35.9C31.28 36.43 31.25 36.97 31.13 37.49C31 38.02 30.77 38.51 30.45 38.94L25.62 45.56C24.98 46.44 24.01 47.02 22.94 47.19C21.86 47.36 20.77 47.09 19.89 46.45C19.01 45.81 18.43 44.84 18.26 43.77C18.09 42.69 18.36 41.6 19 40.72L23.85 34.11C24.17 33.68 24.57 33.31 25.03 33.03C25.48 32.75 25.99 32.56 26.53 32.48C27.06 32.4 27.6 32.42 28.12 32.55C28.64 32.67 29.14 32.9 29.57 33.22Z" />
</svg>