<?xml version="1.0" encoding="UTF-8"?>
<svg width="27px" height="17px" viewBox="0 0 27 17" version="1.1" xmlns="http://www.w3.org/2000/svg" xmlns:xlink="http://www.w3.org/1999/xlink">
    <title>Group</title>
    <g id="Page-1" stroke="none" stroke-width="1" fill="none" fill-rule="evenodd">
        <g id="Group" fill-rule="nonzero">
            <path d="M13.4962196,1.7880694 C15.4327573,3.3119076 16.6789003,5.68270931 16.6789003,8.34422467 C16.6789003,11.0038873 15.4344917,13.3732408 13.4957129,14.901188 C11.5573165,13.3732408 10.3129079,11.0038873 10.3129079,8.34422467 C10.3129079,5.68270931 11.5590509,3.3119076 13.4996176,1.7840694 L13.4939079,1.7880694 L13.4962196,1.7880694 Z" id="Combined-Shape" fill="#6C6BBD"></path>
            <path d="M10.3129079,8.34422467 C10.3129079,11.00574 11.5590509,13.3765417 13.4996176,14.9043799 C12.0805318,16.0216116 10.2895659,16.6884493 8.34316367,16.6884493 C3.7352461,16.6884493 0,12.9526727 0,8.34422467 C0,3.7357766 3.7352461,0 8.34316367,0 C10.2895659,0 12.0805318,0.666837714 13.4996176,1.7840694 C11.5590509,3.3119076 10.3129079,5.68270931 10.3129079,8.34422467" id="Path-Copy" fill="#EB001B"></path>
            <path d="M23.7942644,8.34422467 C23.7942644,11.00574 25.0404074,13.3765417 26.9809741,14.9043799 C25.5618883,16.0216116 23.7709224,16.6884493 21.8245202,16.6884493 C17.2166026,16.6884493 13.4813565,12.9526727 13.4813565,8.34422467 C13.4813565,3.7357766 17.2166026,9.59232693e-16 21.8245202,9.59232693e-16 C23.7709224,9.59232693e-16 25.5618883,0.666837714 26.9809741,1.7840694 C25.0404074,3.3119076 23.7942644,5.68270931 23.7942644,8.34422467" id="Path-Copy-2" fill="#0099DF" transform="translate(20.231165, 8.344225) scale(-1, 1) translate(-20.231165, -8.344225) "></path>
        </g>
    </g>
</svg>