<?xml version="1.0" encoding="iso-8859-1"?>
<!-- Generator: Adobe Illustrator 16.0.0, SVG Export Plug-In . SVG Version: 6.00 Build 0)  -->
<!DOCTYPE svg PUBLIC "-//W3C//DTD SVG 1.1//EN" "http://www.w3.org/Graphics/SVG/1.1/DTD/svg11.dtd">
<svg version="1.1" id="Capa_1" xmlns="http://www.w3.org/2000/svg" xmlns:xlink="http://www.w3.org/1999/xlink" x="0px" y="0px"
	 width="97.75px" height="97.75px" viewBox="0 0 97.75 97.75" style="enable-background:new 0 0 97.75 97.75;" xml:space="preserve"
	>
<g>
	<path d="M48.875,0C21.883,0,0,21.882,0,48.875S21.883,97.75,48.875,97.75S97.75,75.868,97.75,48.875S75.867,0,48.875,0z
		 M83.428,32.795c-0.306,6.734-5.014,15.959-14.109,27.666c-9.402,12.229-17.36,18.344-23.873,18.344
		c-4.029,0-7.44-3.723-10.229-11.173c-1.861-6.827-3.724-13.651-5.584-20.479c-2.067-7.446-4.287-11.174-6.663-11.174
		c-0.516,0-2.33,1.091-5.431,3.261l-3.252-4.195c3.411-2.997,6.78-6,10.093-9.006c4.555-3.933,7.971-6.004,10.252-6.214
		c5.383-0.517,8.697,3.167,9.941,11.044c1.344,8.504,2.273,13.793,2.795,15.861c1.551,7.055,3.26,10.579,5.122,10.579
		c1.449,0,3.627-2.291,6.525-6.863c2.896-4.577,4.448-8.061,4.657-10.448c0.413-3.951-1.14-5.93-4.657-5.93
		c-1.658,0-3.367,0.378-5.121,1.135c3.399-11.138,9.895-16.551,19.484-16.245C80.488,19.167,83.837,23.779,83.428,32.795z"/>
</g>
<g>
</g>
<g>
</g>
<g>
</g>
<g>
</g>
<g>
</g>
<g>
</g>
<g>
</g>
<g>
</g>
<g>
</g>
<g>
</g>
<g>
</g>
<g>
</g>
<g>
</g>
<g>
</g>
<g>
</g>
</svg>
